<svg width="800" height="600" viewBox="0 0 800 600" fill="none" xmlns="http://www.w3.org/2000/svg">
<rect width="800" height="600" fill="url(#paint0_linear_46_31)"/>
<path d="M115.625 259H106.531V252.672H115.297C117.5 252.672 119.344 252.289 120.828 251.523C122.328 250.742 123.453 249.531 124.203 247.891C124.969 246.234 125.352 244.109 125.352 241.516C125.352 238.938 124.969 236.828 124.203 235.188C123.453 233.547 122.328 232.344 120.828 231.578C119.344 230.797 117.508 230.406 115.32 230.406H106.391V224.078H115.742C119.258 224.078 122.281 224.781 124.812 226.188C127.344 227.578 129.289 229.578 130.648 232.188C132.008 234.781 132.688 237.891 132.688 241.516C132.688 245.156 132 248.281 130.625 250.891C129.266 253.5 127.312 255.508 124.766 256.914C122.219 258.305 119.172 259 115.625 259ZM110.609 224.078V259H103.25V224.078H110.609ZM148.391 259.516C145.703 259.516 143.383 258.969 141.43 257.875C139.477 256.781 137.977 255.227 136.93 253.211C135.898 251.18 135.383 248.781 135.383 246.016C135.383 243.328 135.898 240.969 136.93 238.938C137.977 236.906 139.445 235.32 141.336 234.18C143.242 233.039 145.477 232.469 148.039 232.469C149.773 232.469 151.391 232.75 152.891 233.312C154.391 233.859 155.703 234.688 156.828 235.797C157.953 236.891 158.828 238.273 159.453 239.945C160.078 241.602 160.391 243.547 160.391 245.781V247.75H138.266V243.273H156.875L153.5 244.445C153.5 243.117 153.297 241.961 152.891 240.977C152.484 239.992 151.875 239.234 151.062 238.703C150.266 238.156 149.273 237.883 148.086 237.883C146.898 237.883 145.891 238.156 145.062 238.703C144.25 239.25 143.625 239.992 143.188 240.93C142.75 241.867 142.531 242.945 142.531 244.164V247.328C142.531 248.75 142.781 249.969 143.281 250.984C143.781 251.984 144.477 252.758 145.367 253.305C146.273 253.836 147.312 254.102 148.484 254.102C149.297 254.102 150.031 253.984 150.688 253.75C151.344 253.516 151.906 253.172 152.375 252.719C152.859 252.266 153.219 251.719 153.453 251.078L160.156 251.523C159.828 253.133 159.141 254.539 158.094 255.742C157.062 256.93 155.727 257.859 154.086 258.531C152.445 259.188 150.547 259.516 148.391 259.516ZM175.297 259.516C172.625 259.516 170.328 258.945 168.406 257.805C166.484 256.648 165.008 255.062 163.977 253.047C162.945 251.016 162.43 248.672 162.43 246.016C162.43 243.328 162.945 240.969 163.977 238.938C165.023 236.906 166.508 235.32 168.43 234.18C170.352 233.039 172.641 232.469 175.297 232.469C177.578 232.469 179.57 232.883 181.273 233.711C182.992 234.539 184.352 235.703 185.352 237.203C186.352 238.703 186.898 240.469 186.992 242.5H180.148C180.023 241.625 179.758 240.859 179.352 240.203C178.945 239.547 178.406 239.039 177.734 238.68C177.062 238.32 176.281 238.141 175.391 238.141C174.266 238.141 173.281 238.445 172.438 239.055C171.609 239.648 170.961 240.531 170.492 241.703C170.039 242.859 169.812 244.266 169.812 245.922C169.812 247.578 170.039 249 170.492 250.188C170.961 251.375 171.609 252.281 172.438 252.906C173.281 253.531 174.266 253.844 175.391 253.844C176.641 253.844 177.695 253.453 178.555 252.672C179.414 251.875 179.945 250.781 180.148 249.391H186.992C186.883 251.391 186.344 253.156 185.375 254.688C184.406 256.203 183.07 257.391 181.367 258.25C179.664 259.094 177.641 259.516 175.297 259.516ZM197.375 224.078V259H190.133V224.078H197.375ZM209.117 259.492C207.461 259.492 205.969 259.203 204.641 258.625C203.328 258.031 202.297 257.156 201.547 256C200.797 254.844 200.422 253.406 200.422 251.688C200.422 250.219 200.688 249 201.219 248.031C201.75 247.047 202.477 246.25 203.398 245.641C204.32 245.031 205.367 244.57 206.539 244.258C207.711 243.945 208.953 243.727 210.266 243.602C211.781 243.461 213 243.32 213.922 243.18C214.844 243.039 215.516 242.828 215.938 242.547C216.375 242.25 216.594 241.828 216.594 241.281V241.164C216.594 240.086 216.25 239.25 215.562 238.656C214.891 238.062 213.938 237.766 212.703 237.766C211.406 237.766 210.367 238.055 209.586 238.633C208.82 239.195 208.312 239.914 208.062 240.789L201.336 240.25C201.68 238.656 202.352 237.281 203.352 236.125C204.352 234.953 205.641 234.055 207.219 233.43C208.812 232.789 210.656 232.469 212.75 232.469C214.203 232.469 215.594 232.641 216.922 232.984C218.25 233.328 219.43 233.859 220.461 234.578C221.508 235.281 222.336 236.195 222.945 237.32C223.555 238.445 223.859 239.781 223.859 241.328V259H216.945V255.344H216.758C216.336 256.172 215.773 256.898 215.07 257.523C214.367 258.133 213.523 258.617 212.539 258.977C211.555 259.32 210.414 259.492 209.117 259.492ZM211.203 254.477C212.266 254.477 213.203 254.266 214.016 253.844C214.844 253.406 215.484 252.828 215.938 252.109C216.406 251.375 216.641 250.555 216.641 249.648V246.859C216.422 247 216.109 247.133 215.703 247.258C215.312 247.383 214.875 247.492 214.391 247.586C213.906 247.68 213.422 247.766 212.938 247.844C212.453 247.906 212.016 247.969 211.625 248.031C210.766 248.156 210.016 248.359 209.375 248.641C208.734 248.906 208.234 249.273 207.875 249.742C207.531 250.195 207.359 250.766 207.359 251.453C207.359 252.438 207.719 253.188 208.438 253.703C209.156 254.219 210.078 254.477 211.203 254.477ZM228.102 259V232.797H235.109V237.391H235.391C235.875 235.766 236.68 234.539 237.805 233.711C238.93 232.867 240.219 232.445 241.672 232.445C242.047 232.445 242.438 232.469 242.844 232.516C243.266 232.547 243.641 232.609 243.969 232.703V239.125C243.625 239.016 243.148 238.93 242.539 238.867C241.945 238.789 241.391 238.75 240.875 238.75C239.828 238.75 238.883 238.984 238.039 239.453C237.195 239.906 236.531 240.547 236.047 241.375C235.578 242.188 235.344 243.125 235.344 244.188V259H228.102ZM252.852 259.492C251.195 259.492 249.703 259.203 248.375 258.625C247.062 258.031 246.031 257.156 245.281 256C244.531 254.844 244.156 253.406 244.156 251.688C244.156 250.219 244.422 249 244.953 248.031C245.484 247.047 246.211 246.25 247.133 245.641C248.055 245.031 249.102 244.57 250.273 244.258C251.445 243.945 252.688 243.727 254 243.602C255.516 243.461 256.734 243.32 257.656 243.18C258.578 243.039 259.25 242.828 259.672 242.547C260.109 242.25 260.328 241.828 260.328 241.281V241.164C260.328 240.086 259.984 239.25 259.297 238.656C258.625 238.062 257.672 237.766 256.438 237.766C255.141 237.766 254.102 238.055 253.32 238.633C252.555 239.195 252.047 239.914 251.797 240.789L245.07 240.25C245.414 238.656 246.086 237.281 247.086 236.125C248.086 234.953 249.375 234.055 250.953 233.43C252.547 232.789 254.391 232.469 256.484 232.469C257.938 232.469 259.328 232.641 260.656 232.984C261.984 233.328 263.164 233.859 264.195 234.578C265.242 235.281 266.07 236.195 266.68 237.32C267.289 238.445 267.594 239.781 267.594 241.328V259H260.68V255.344H260.492C260.07 256.172 259.508 256.898 258.805 257.523C258.102 258.133 257.258 258.617 256.273 258.977C255.289 259.32 254.148 259.492 252.852 259.492ZM254.938 254.477C256 254.477 256.938 254.266 257.75 253.844C258.578 253.406 259.219 252.828 259.672 252.109C260.141 251.375 260.375 250.555 260.375 249.648V246.859C260.156 247 259.844 247.133 259.438 247.258C259.047 247.383 258.609 247.492 258.125 247.586C257.641 247.68 257.156 247.766 256.672 247.844C256.188 247.906 255.75 247.969 255.359 248.031C254.5 248.156 253.75 248.359 253.109 248.641C252.469 248.906 251.969 249.273 251.609 249.742C251.266 250.195 251.094 250.766 251.094 251.453C251.094 252.438 251.453 253.188 252.172 253.703C252.891 254.219 253.812 254.477 254.938 254.477ZM283.625 259.516C280.953 259.516 278.656 258.945 276.734 257.805C274.812 256.648 273.336 255.062 272.305 253.047C271.273 251.016 270.758 248.672 270.758 246.016C270.758 243.328 271.273 240.969 272.305 238.938C273.352 236.906 274.836 235.32 276.758 234.18C278.68 233.039 280.969 232.469 283.625 232.469C285.906 232.469 287.898 232.883 289.602 233.711C291.32 234.539 292.68 235.703 293.68 237.203C294.68 238.703 295.227 240.469 295.32 242.5H288.477C288.352 241.625 288.086 240.859 287.68 240.203C287.273 239.547 286.734 239.039 286.062 238.68C285.391 238.32 284.609 238.141 283.719 238.141C282.594 238.141 281.609 238.445 280.766 239.055C279.938 239.648 279.289 240.531 278.82 241.703C278.367 242.859 278.141 244.266 278.141 245.922C278.141 247.578 278.367 249 278.82 250.188C279.289 251.375 279.938 252.281 280.766 252.906C281.609 253.531 282.594 253.844 283.719 253.844C284.969 253.844 286.023 253.453 286.883 252.672C287.742 251.875 288.273 250.781 288.477 249.391H295.32C295.211 251.391 294.672 253.156 293.703 254.688C292.734 256.203 291.398 257.391 289.695 258.25C287.992 259.094 285.969 259.516 283.625 259.516ZM281.938 258.859H285.289L285.008 260.359C286.164 260.531 287.117 260.961 287.867 261.648C288.617 262.352 289 263.305 289.016 264.508C289.031 266.195 288.242 267.539 286.648 268.539C285.07 269.539 282.852 270.039 279.992 270.039L279.922 266.805C281.359 266.805 282.484 266.625 283.297 266.266C284.125 265.922 284.547 265.391 284.562 264.672C284.594 263.969 284.328 263.438 283.766 263.078C283.219 262.719 282.352 262.469 281.164 262.328L281.938 258.859ZM305.914 259.492C304.258 259.492 302.766 259.203 301.438 258.625C300.125 258.031 299.094 257.156 298.344 256C297.594 254.844 297.219 253.406 297.219 251.688C297.219 250.219 297.484 249 298.016 248.031C298.547 247.047 299.273 246.25 300.195 245.641C301.117 245.031 302.164 244.57 303.336 244.258C304.508 243.945 305.75 243.727 307.062 243.602C308.578 243.461 309.797 243.32 310.719 243.18C311.641 243.039 312.312 242.828 312.734 242.547C313.172 242.25 313.391 241.828 313.391 241.281V241.164C313.391 240.086 313.047 239.25 312.359 238.656C311.688 238.062 310.734 237.766 309.5 237.766C308.203 237.766 307.164 238.055 306.383 238.633C305.617 239.195 305.109 239.914 304.859 240.789L298.133 240.25C298.477 238.656 299.148 237.281 300.148 236.125C301.148 234.953 302.438 234.055 304.016 233.43C305.609 232.789 307.453 232.469 309.547 232.469C311 232.469 312.391 232.641 313.719 232.984C315.047 233.328 316.227 233.859 317.258 234.578C318.305 235.281 319.133 236.195 319.742 237.32C320.352 238.445 320.656 239.781 320.656 241.328V259H313.742V255.344H313.555C313.133 256.172 312.57 256.898 311.867 257.523C311.164 258.133 310.32 258.617 309.336 258.977C308.352 259.32 307.211 259.492 305.914 259.492ZM308 254.477C309.062 254.477 310 254.266 310.812 253.844C311.641 253.406 312.281 252.828 312.734 252.109C313.203 251.375 313.438 250.555 313.438 249.648V246.859C313.219 247 312.906 247.133 312.5 247.258C312.109 247.383 311.672 247.492 311.188 247.586C310.703 247.68 310.219 247.766 309.734 247.844C309.25 247.906 308.812 247.969 308.422 248.031C307.562 248.156 306.812 248.359 306.172 248.641C305.531 248.906 305.031 249.273 304.672 249.742C304.328 250.195 304.156 250.766 304.156 251.453C304.156 252.438 304.516 253.188 305.234 253.703C305.953 254.219 306.875 254.477 308 254.477ZM313.086 229.492C312.336 229.492 311.664 229.375 311.07 229.141C310.477 228.891 309.945 228.602 309.477 228.273C309.008 227.945 308.578 227.656 308.188 227.406C307.797 227.156 307.414 227.031 307.039 227.031C306.539 227.031 306.156 227.25 305.891 227.688C305.641 228.109 305.5 228.664 305.469 229.352H301.531C301.578 227.32 302.055 225.766 302.961 224.688C303.867 223.594 305.047 223.047 306.5 223.047C307.266 223.047 307.938 223.172 308.516 223.422C309.109 223.656 309.633 223.938 310.086 224.266C310.539 224.594 310.961 224.883 311.352 225.133C311.758 225.367 312.156 225.484 312.547 225.484C313.109 225.484 313.508 225.289 313.742 224.898C313.992 224.492 314.133 223.914 314.164 223.164H318.031C318 225.18 317.516 226.742 316.578 227.852C315.656 228.945 314.492 229.492 313.086 229.492ZM336.688 259.516C334.047 259.516 331.758 258.953 329.82 257.828C327.898 256.688 326.414 255.109 325.367 253.094C324.336 251.062 323.82 248.703 323.82 246.016C323.82 243.297 324.336 240.93 325.367 238.914C326.414 236.883 327.898 235.305 329.82 234.18C331.758 233.039 334.047 232.469 336.688 232.469C339.344 232.469 341.633 233.039 343.555 234.18C345.492 235.305 346.977 236.883 348.008 238.914C349.055 240.93 349.578 243.297 349.578 246.016C349.578 248.703 349.055 251.062 348.008 253.094C346.977 255.109 345.492 256.688 343.555 257.828C341.633 258.953 339.344 259.516 336.688 259.516ZM336.734 253.844C337.938 253.844 338.945 253.508 339.758 252.836C340.57 252.148 341.18 251.211 341.586 250.023C342.008 248.836 342.219 247.484 342.219 245.969C342.219 244.438 342.008 243.086 341.586 241.914C341.18 240.742 340.57 239.82 339.758 239.148C338.945 238.477 337.938 238.141 336.734 238.141C335.516 238.141 334.492 238.477 333.664 239.148C332.852 239.82 332.234 240.742 331.812 241.914C331.406 243.086 331.203 244.438 331.203 245.969C331.203 247.484 331.406 248.836 331.812 250.023C332.234 251.211 332.852 252.148 333.664 252.836C334.492 253.508 335.516 253.844 336.734 253.844ZM371.914 259.422C369.914 259.422 368.109 258.906 366.5 257.875C364.891 256.844 363.617 255.328 362.68 253.328C361.742 251.312 361.273 248.852 361.273 245.945C361.273 242.945 361.758 240.445 362.727 238.445C363.695 236.445 364.984 234.953 366.594 233.969C368.203 232.969 369.961 232.469 371.867 232.469C373.336 232.469 374.562 232.719 375.547 233.219C376.531 233.703 377.328 234.312 377.938 235.047C378.547 235.781 379.008 236.508 379.32 237.227H379.531V224.078H386.797V259H379.648V254.805H379.32C378.992 255.523 378.516 256.242 377.891 256.961C377.266 257.664 376.461 258.25 375.477 258.719C374.508 259.188 373.32 259.422 371.914 259.422ZM374.188 253.656C375.359 253.656 376.352 253.336 377.164 252.695C377.992 252.039 378.617 251.133 379.039 249.977C379.477 248.82 379.695 247.469 379.695 245.922C379.695 244.359 379.484 243.008 379.062 241.867C378.641 240.711 378.016 239.82 377.188 239.195C376.359 238.555 375.359 238.234 374.188 238.234C373 238.234 372 238.562 371.188 239.219C370.375 239.875 369.758 240.781 369.336 241.938C368.914 243.078 368.703 244.406 368.703 245.922C368.703 247.438 368.914 248.781 369.336 249.953C369.758 251.109 370.375 252.016 371.188 252.672C372.016 253.328 373.016 253.656 374.188 253.656ZM402.969 259.516C400.281 259.516 397.961 258.969 396.008 257.875C394.055 256.781 392.555 255.227 391.508 253.211C390.477 251.18 389.961 248.781 389.961 246.016C389.961 243.328 390.477 240.969 391.508 238.938C392.555 236.906 394.023 235.32 395.914 234.18C397.82 233.039 400.055 232.469 402.617 232.469C404.352 232.469 405.969 232.75 407.469 233.312C408.969 233.859 410.281 234.688 411.406 235.797C412.531 236.891 413.406 238.273 414.031 239.945C414.656 241.602 414.969 243.547 414.969 245.781V247.75H392.844V243.273H411.453L408.078 244.445C408.078 243.117 407.875 241.961 407.469 240.977C407.062 239.992 406.453 239.234 405.641 238.703C404.844 238.156 403.852 237.883 402.664 237.883C401.477 237.883 400.469 238.156 399.641 238.703C398.828 239.25 398.203 239.992 397.766 240.93C397.328 241.867 397.109 242.945 397.109 244.164V247.328C397.109 248.75 397.359 249.969 397.859 250.984C398.359 251.984 399.055 252.758 399.945 253.305C400.852 253.836 401.891 254.102 403.062 254.102C403.875 254.102 404.609 253.984 405.266 253.75C405.922 253.516 406.484 253.172 406.953 252.719C407.438 252.266 407.797 251.719 408.031 251.078L414.734 251.523C414.406 253.133 413.719 254.539 412.672 255.742C411.641 256.93 410.305 257.859 408.664 258.531C407.023 259.188 405.125 259.516 402.969 259.516ZM103.25 317V282.078H126.781V288.172H110.609V296.375H125.562V302.352H110.609V310.906H126.828V317H103.25ZM138.219 301.859V317H130.977V290.797H138.102V295.461H138.359C138.953 293.914 139.898 292.695 141.195 291.805C142.492 290.914 144.117 290.469 146.07 290.469C147.883 290.469 149.461 290.867 150.805 291.664C152.164 292.461 153.219 293.594 153.969 295.062C154.719 296.531 155.094 298.289 155.094 300.336V317H147.852V301.625C147.852 300.031 147.438 298.781 146.609 297.875C145.781 296.953 144.641 296.492 143.188 296.492C142.219 296.492 141.359 296.711 140.609 297.148C139.859 297.57 139.273 298.18 138.852 298.977C138.43 299.773 138.219 300.734 138.219 301.859ZM176.562 326.797V312.805H176.352C176.023 313.523 175.547 314.242 174.922 314.961C174.297 315.664 173.492 316.25 172.508 316.719C171.539 317.188 170.352 317.422 168.945 317.422C166.945 317.422 165.141 316.906 163.531 315.875C161.922 314.844 160.648 313.328 159.711 311.328C158.773 309.312 158.305 306.852 158.305 303.945C158.305 300.945 158.789 298.445 159.758 296.445C160.727 294.445 162.016 292.953 163.625 291.969C165.234 290.969 166.992 290.469 168.898 290.469C170.367 290.469 171.594 290.719 172.578 291.219C173.562 291.703 174.359 292.312 174.969 293.047C175.578 293.781 176.039 294.508 176.352 295.227H176.68V290.797H183.828V326.797H176.562ZM171.219 311.656C172.391 311.656 173.383 311.336 174.195 310.695C175.023 310.039 175.648 309.133 176.07 307.977C176.508 306.82 176.727 305.469 176.727 303.922C176.727 302.359 176.516 301.008 176.094 299.867C175.672 298.711 175.047 297.82 174.219 297.195C173.391 296.555 172.391 296.234 171.219 296.234C170.031 296.234 169.031 296.562 168.219 297.219C167.406 297.875 166.789 298.781 166.367 299.938C165.945 301.078 165.734 302.406 165.734 303.922C165.734 305.438 165.945 306.781 166.367 307.953C166.789 309.109 167.406 310.016 168.219 310.672C169.047 311.328 170.047 311.656 171.219 311.656ZM204.852 305.867V290.797H212.094V317H205.133V312.242H204.852C204.258 313.758 203.281 314.992 201.922 315.945C200.562 316.883 198.898 317.344 196.93 317.328C195.18 317.328 193.633 316.938 192.289 316.156C190.961 315.359 189.922 314.227 189.172 312.758C188.438 311.289 188.07 309.531 188.07 307.484V290.797H195.312V306.219C195.312 307.75 195.727 308.969 196.555 309.875C197.383 310.766 198.484 311.203 199.859 311.188C200.734 311.188 201.547 310.992 202.297 310.602C203.047 310.195 203.656 309.594 204.125 308.797C204.609 308 204.852 307.023 204.852 305.867ZM223.836 317.492C222.18 317.492 220.688 317.203 219.359 316.625C218.047 316.031 217.016 315.156 216.266 314C215.516 312.844 215.141 311.406 215.141 309.688C215.141 308.219 215.406 307 215.938 306.031C216.469 305.047 217.195 304.25 218.117 303.641C219.039 303.031 220.086 302.57 221.258 302.258C222.43 301.945 223.672 301.727 224.984 301.602C226.5 301.461 227.719 301.32 228.641 301.18C229.562 301.039 230.234 300.828 230.656 300.547C231.094 300.25 231.312 299.828 231.312 299.281V299.164C231.312 298.086 230.969 297.25 230.281 296.656C229.609 296.062 228.656 295.766 227.422 295.766C226.125 295.766 225.086 296.055 224.305 296.633C223.539 297.195 223.031 297.914 222.781 298.789L216.055 298.25C216.398 296.656 217.07 295.281 218.07 294.125C219.07 292.953 220.359 292.055 221.938 291.43C223.531 290.789 225.375 290.469 227.469 290.469C228.922 290.469 230.312 290.641 231.641 290.984C232.969 291.328 234.148 291.859 235.18 292.578C236.227 293.281 237.055 294.195 237.664 295.32C238.273 296.445 238.578 297.781 238.578 299.328V317H231.664V313.344H231.477C231.055 314.172 230.492 314.898 229.789 315.523C229.086 316.133 228.242 316.617 227.258 316.977C226.273 317.32 225.133 317.492 223.836 317.492ZM225.922 312.477C226.984 312.477 227.922 312.266 228.734 311.844C229.562 311.406 230.203 310.828 230.656 310.109C231.125 309.375 231.359 308.555 231.359 307.648V304.859C231.141 305 230.828 305.133 230.422 305.258C230.031 305.383 229.594 305.492 229.109 305.586C228.625 305.68 228.141 305.766 227.656 305.844C227.172 305.906 226.734 305.969 226.344 306.031C225.484 306.156 224.734 306.359 224.094 306.641C223.453 306.906 222.953 307.273 222.594 307.742C222.25 308.195 222.078 308.766 222.078 309.453C222.078 310.438 222.438 311.188 223.156 311.703C223.875 312.219 224.797 312.477 225.922 312.477ZM252.383 317.422C250.383 317.422 248.578 316.906 246.969 315.875C245.359 314.844 244.086 313.328 243.148 311.328C242.211 309.312 241.742 306.852 241.742 303.945C241.742 300.945 242.227 298.445 243.195 296.445C244.164 294.445 245.453 292.953 247.062 291.969C248.672 290.969 250.43 290.469 252.336 290.469C253.805 290.469 255.031 290.719 256.016 291.219C257 291.703 257.797 292.312 258.406 293.047C259.016 293.781 259.477 294.508 259.789 295.227H260V282.078H267.266V317H260.117V312.805H259.789C259.461 313.523 258.984 314.242 258.359 314.961C257.734 315.664 256.93 316.25 255.945 316.719C254.977 317.188 253.789 317.422 252.383 317.422ZM254.656 311.656C255.828 311.656 256.82 311.336 257.633 310.695C258.461 310.039 259.086 309.133 259.508 307.977C259.945 306.82 260.164 305.469 260.164 303.922C260.164 302.359 259.953 301.008 259.531 299.867C259.109 298.711 258.484 297.82 257.656 297.195C256.828 296.555 255.828 296.234 254.656 296.234C253.469 296.234 252.469 296.562 251.656 297.219C250.844 297.875 250.227 298.781 249.805 299.938C249.383 301.078 249.172 302.406 249.172 303.922C249.172 305.438 249.383 306.781 249.805 307.953C250.227 309.109 250.844 310.016 251.656 310.672C252.484 311.328 253.484 311.656 254.656 311.656ZM271.508 317V290.797H278.516V295.391H278.797C279.281 293.766 280.086 292.539 281.211 291.711C282.336 290.867 283.625 290.445 285.078 290.445C285.453 290.445 285.844 290.469 286.25 290.516C286.672 290.547 287.047 290.609 287.375 290.703V297.125C287.031 297.016 286.555 296.93 285.945 296.867C285.352 296.789 284.797 296.75 284.281 296.75C283.234 296.75 282.289 296.984 281.445 297.453C280.602 297.906 279.938 298.547 279.453 299.375C278.984 300.188 278.75 301.125 278.75 302.188V317H271.508ZM296.258 317.492C294.602 317.492 293.109 317.203 291.781 316.625C290.469 316.031 289.438 315.156 288.688 314C287.938 312.844 287.562 311.406 287.562 309.688C287.562 308.219 287.828 307 288.359 306.031C288.891 305.047 289.617 304.25 290.539 303.641C291.461 303.031 292.508 302.57 293.68 302.258C294.852 301.945 296.094 301.727 297.406 301.602C298.922 301.461 300.141 301.32 301.062 301.18C301.984 301.039 302.656 300.828 303.078 300.547C303.516 300.25 303.734 299.828 303.734 299.281V299.164C303.734 298.086 303.391 297.25 302.703 296.656C302.031 296.062 301.078 295.766 299.844 295.766C298.547 295.766 297.508 296.055 296.727 296.633C295.961 297.195 295.453 297.914 295.203 298.789L288.477 298.25C288.82 296.656 289.492 295.281 290.492 294.125C291.492 292.953 292.781 292.055 294.359 291.43C295.953 290.789 297.797 290.469 299.891 290.469C301.344 290.469 302.734 290.641 304.062 290.984C305.391 291.328 306.57 291.859 307.602 292.578C308.648 293.281 309.477 294.195 310.086 295.32C310.695 296.445 311 297.781 311 299.328V317H304.086V313.344H303.898C303.477 314.172 302.914 314.898 302.211 315.523C301.508 316.133 300.664 316.617 299.68 316.977C298.695 317.32 297.555 317.492 296.258 317.492ZM298.344 312.477C299.406 312.477 300.344 312.266 301.156 311.844C301.984 311.406 302.625 310.828 303.078 310.109C303.547 309.375 303.781 308.555 303.781 307.648V304.859C303.562 305 303.25 305.133 302.844 305.258C302.453 305.383 302.016 305.492 301.531 305.586C301.047 305.68 300.562 305.766 300.078 305.844C299.594 305.906 299.156 305.969 298.766 306.031C297.906 306.156 297.156 306.359 296.516 306.641C295.875 306.906 295.375 307.273 295.016 307.742C294.672 308.195 294.5 308.766 294.5 309.453C294.5 310.438 294.859 311.188 295.578 311.703C296.297 312.219 297.219 312.477 298.344 312.477ZM315.242 317V290.797H322.109V295.461H322.438C322.984 293.914 323.898 292.695 325.18 291.805C326.461 290.914 327.984 290.469 329.75 290.469C331.547 290.469 333.07 290.922 334.32 291.828C335.586 292.719 336.43 293.93 336.852 295.461H337.133C337.664 293.945 338.633 292.734 340.039 291.828C341.445 290.922 343.102 290.469 345.008 290.469C347.445 290.469 349.43 291.242 350.961 292.789C352.508 294.336 353.281 296.531 353.281 299.375V317H346.016V300.828C346.016 299.359 345.625 298.266 344.844 297.547C344.078 296.828 343.117 296.469 341.961 296.469C340.648 296.469 339.617 296.891 338.867 297.734C338.133 298.562 337.766 299.656 337.766 301.016V317H330.734V300.641C330.734 299.375 330.367 298.367 329.633 297.617C328.898 296.852 327.938 296.469 326.75 296.469C325.938 296.469 325.211 296.672 324.57 297.078C323.93 297.484 323.422 298.047 323.047 298.766C322.672 299.469 322.484 300.312 322.484 301.297V317H315.242ZM369.5 317.516C366.812 317.516 364.492 316.969 362.539 315.875C360.586 314.781 359.086 313.227 358.039 311.211C357.008 309.18 356.492 306.781 356.492 304.016C356.492 301.328 357.008 298.969 358.039 296.938C359.086 294.906 360.555 293.32 362.445 292.18C364.352 291.039 366.586 290.469 369.148 290.469C370.883 290.469 372.5 290.75 374 291.312C375.5 291.859 376.812 292.688 377.938 293.797C379.062 294.891 379.938 296.273 380.562 297.945C381.188 299.602 381.5 301.547 381.5 303.781V305.75H359.375V301.273H377.984L374.609 302.445C374.609 301.117 374.406 299.961 374 298.977C373.594 297.992 372.984 297.234 372.172 296.703C371.375 296.156 370.383 295.883 369.195 295.883C368.008 295.883 367 296.156 366.172 296.703C365.359 297.25 364.734 297.992 364.297 298.93C363.859 299.867 363.641 300.945 363.641 302.164V305.328C363.641 306.75 363.891 307.969 364.391 308.984C364.891 309.984 365.586 310.758 366.477 311.305C367.383 311.836 368.422 312.102 369.594 312.102C370.406 312.102 371.141 311.984 371.797 311.75C372.453 311.516 373.016 311.172 373.484 310.719C373.969 310.266 374.328 309.719 374.562 309.078L381.266 309.523C380.938 311.133 380.25 312.539 379.203 313.742C378.172 314.93 376.836 315.859 375.195 316.531C373.555 317.188 371.656 317.516 369.5 317.516ZM391.859 301.859V317H384.617V290.797H391.742V295.461H392C392.594 293.914 393.539 292.695 394.836 291.805C396.133 290.914 397.758 290.469 399.711 290.469C401.523 290.469 403.102 290.867 404.445 291.664C405.805 292.461 406.859 293.594 407.609 295.062C408.359 296.531 408.734 298.289 408.734 300.336V317H401.492V301.625C401.492 300.031 401.078 298.781 400.25 297.875C399.422 296.953 398.281 296.492 396.828 296.492C395.859 296.492 395 296.711 394.25 297.148C393.5 297.57 392.914 298.18 392.492 298.977C392.07 299.773 391.859 300.734 391.859 301.859ZM426.922 290.797V296.281H411.148V290.797H426.922ZM414.734 284.562H421.977V308.938C421.977 309.812 422.172 310.461 422.562 310.883C422.953 311.289 423.578 311.492 424.438 311.492C424.719 311.492 425.031 311.469 425.375 311.422C425.719 311.375 426.016 311.32 426.266 311.258L427.414 316.695C426.617 316.93 425.844 317.102 425.094 317.211C424.359 317.32 423.633 317.375 422.914 317.375C420.305 317.375 418.289 316.727 416.867 315.43C415.445 314.117 414.734 312.273 414.734 309.898V284.562ZM441.594 317.516C438.953 317.516 436.664 316.953 434.727 315.828C432.805 314.688 431.32 313.109 430.273 311.094C429.242 309.062 428.727 306.703 428.727 304.016C428.727 301.297 429.242 298.93 430.273 296.914C431.32 294.883 432.805 293.305 434.727 292.18C436.664 291.039 438.953 290.469 441.594 290.469C444.25 290.469 446.539 291.039 448.461 292.18C450.398 293.305 451.883 294.883 452.914 296.914C453.961 298.93 454.484 301.297 454.484 304.016C454.484 306.703 453.961 309.062 452.914 311.094C451.883 313.109 450.398 314.688 448.461 315.828C446.539 316.953 444.25 317.516 441.594 317.516ZM441.641 311.844C442.844 311.844 443.852 311.508 444.664 310.836C445.477 310.148 446.086 309.211 446.492 308.023C446.914 306.836 447.125 305.484 447.125 303.969C447.125 302.438 446.914 301.086 446.492 299.914C446.086 298.742 445.477 297.82 444.664 297.148C443.852 296.477 442.844 296.141 441.641 296.141C440.422 296.141 439.398 296.477 438.57 297.148C437.758 297.82 437.141 298.742 436.719 299.914C436.312 301.086 436.109 302.438 436.109 303.969C436.109 305.484 436.312 306.836 436.719 308.023C437.141 309.211 437.758 310.148 438.57 310.836C439.398 311.508 440.422 311.844 441.641 311.844ZM474.5 301.859V317H467.258V290.797H474.383V295.461H474.641C475.234 293.914 476.18 292.695 477.477 291.805C478.773 290.914 480.398 290.469 482.352 290.469C484.164 290.469 485.742 290.867 487.086 291.664C488.445 292.461 489.5 293.594 490.25 295.062C491 296.531 491.375 298.289 491.375 300.336V317H484.133V301.625C484.133 300.031 483.719 298.781 482.891 297.875C482.062 296.953 480.922 296.492 479.469 296.492C478.5 296.492 477.641 296.711 476.891 297.148C476.141 297.57 475.555 298.18 475.133 298.977C474.711 299.773 474.5 300.734 474.5 301.859ZM507.453 317.516C504.812 317.516 502.523 316.953 500.586 315.828C498.664 314.688 497.18 313.109 496.133 311.094C495.102 309.062 494.586 306.703 494.586 304.016C494.586 301.297 495.102 298.93 496.133 296.914C497.18 294.883 498.664 293.305 500.586 292.18C502.523 291.039 504.812 290.469 507.453 290.469C510.109 290.469 512.398 291.039 514.32 292.18C516.258 293.305 517.742 294.883 518.773 296.914C519.82 298.93 520.344 301.297 520.344 304.016C520.344 306.703 519.82 309.062 518.773 311.094C517.742 313.109 516.258 314.688 514.32 315.828C512.398 316.953 510.109 317.516 507.453 317.516ZM507.5 311.844C508.703 311.844 509.711 311.508 510.523 310.836C511.336 310.148 511.945 309.211 512.352 308.023C512.773 306.836 512.984 305.484 512.984 303.969C512.984 302.438 512.773 301.086 512.352 299.914C511.945 298.742 511.336 297.82 510.523 297.148C509.711 296.477 508.703 296.141 507.5 296.141C506.281 296.141 505.258 296.477 504.43 297.148C503.617 297.82 503 298.742 502.578 299.914C502.172 301.086 501.969 302.438 501.969 303.969C501.969 305.484 502.172 306.836 502.578 308.023C503 309.211 503.617 310.148 504.43 310.836C505.258 311.508 506.281 311.844 507.5 311.844ZM103.25 375V340.078H117.008C119.648 340.078 121.898 340.586 123.758 341.602C125.633 342.602 127.062 343.992 128.047 345.773C129.047 347.555 129.547 349.609 129.547 351.938C129.547 354.25 129.047 356.289 128.047 358.055C127.047 359.82 125.594 361.203 123.688 362.203C121.797 363.188 119.508 363.68 116.82 363.68H108.055V357.773H115.625C117.047 357.773 118.219 357.523 119.141 357.023C120.078 356.523 120.773 355.836 121.227 354.961C121.695 354.086 121.93 353.078 121.93 351.938C121.93 350.766 121.695 349.75 121.227 348.891C120.773 348.016 120.078 347.336 119.141 346.852C118.203 346.367 117.023 346.125 115.602 346.125H110.609V375H103.25ZM132.664 375V348.797H139.672V353.391H139.953C140.438 351.766 141.242 350.539 142.367 349.711C143.492 348.867 144.781 348.445 146.234 348.445C146.609 348.445 147 348.469 147.406 348.516C147.828 348.547 148.203 348.609 148.531 348.703V355.125C148.188 355.016 147.711 354.93 147.102 354.867C146.508 354.789 145.953 354.75 145.438 354.75C144.391 354.75 143.445 354.984 142.602 355.453C141.758 355.906 141.094 356.547 140.609 357.375C140.141 358.188 139.906 359.125 139.906 360.188V375H132.664ZM161.281 375.516C158.641 375.516 156.352 374.953 154.414 373.828C152.492 372.688 151.008 371.109 149.961 369.094C148.93 367.062 148.414 364.703 148.414 362.016C148.414 359.297 148.93 356.93 149.961 354.914C151.008 352.883 152.492 351.305 154.414 350.18C156.352 349.039 158.641 348.469 161.281 348.469C163.938 348.469 166.227 349.039 168.148 350.18C170.086 351.305 171.57 352.883 172.602 354.914C173.648 356.93 174.172 359.297 174.172 362.016C174.172 364.703 173.648 367.062 172.602 369.094C171.57 371.109 170.086 372.688 168.148 373.828C166.227 374.953 163.938 375.516 161.281 375.516ZM161.328 369.844C162.531 369.844 163.539 369.508 164.352 368.836C165.164 368.148 165.773 367.211 166.18 366.023C166.602 364.836 166.812 363.484 166.812 361.969C166.812 360.438 166.602 359.086 166.18 357.914C165.773 356.742 165.164 355.82 164.352 355.148C163.539 354.477 162.531 354.141 161.328 354.141C160.109 354.141 159.086 354.477 158.258 355.148C157.445 355.82 156.828 356.742 156.406 357.914C156 359.086 155.797 360.438 155.797 361.969C155.797 363.484 156 364.836 156.406 366.023C156.828 367.211 157.445 368.148 158.258 368.836C159.086 369.508 160.109 369.844 161.328 369.844ZM189.102 385.359C185.57 385.359 182.805 384.656 180.805 383.25C178.805 381.859 177.586 380.125 177.148 378.047L183.852 377.156C184.055 377.688 184.375 378.18 184.812 378.633C185.25 379.086 185.836 379.445 186.57 379.711C187.305 379.992 188.203 380.133 189.266 380.133C190.844 380.133 192.148 379.75 193.18 378.984C194.211 378.234 194.727 376.961 194.727 375.164V370.359H194.422C194.109 371.078 193.633 371.766 192.992 372.422C192.352 373.078 191.531 373.609 190.531 374.016C189.531 374.422 188.336 374.625 186.945 374.625C184.977 374.625 183.188 374.172 181.578 373.266C179.984 372.344 178.703 370.938 177.734 369.047C176.781 367.156 176.305 364.766 176.305 361.875C176.305 358.891 176.789 356.406 177.758 354.422C178.742 352.438 180.039 350.953 181.648 349.969C183.258 348.969 185.023 348.469 186.945 348.469C188.414 348.469 189.641 348.719 190.625 349.219C191.625 349.703 192.438 350.312 193.062 351.047C193.688 351.781 194.156 352.508 194.469 353.227H194.75V348.797H201.898V375.281C201.898 377.5 201.352 379.359 200.258 380.859C199.164 382.359 197.656 383.484 195.734 384.234C193.812 384.984 191.602 385.359 189.102 385.359ZM189.242 369.164C190.992 369.164 192.344 368.516 193.297 367.219C194.266 365.922 194.75 364.125 194.75 361.828C194.75 360.297 194.531 358.969 194.094 357.844C193.672 356.703 193.055 355.82 192.242 355.195C191.43 354.555 190.43 354.234 189.242 354.234C188.055 354.234 187.047 354.562 186.219 355.219C185.406 355.859 184.789 356.75 184.367 357.891C183.945 359.031 183.734 360.344 183.734 361.828C183.734 363.328 183.945 364.633 184.367 365.742C184.789 366.836 185.406 367.68 186.219 368.273C187.047 368.867 188.055 369.164 189.242 369.164ZM206.164 375V348.797H213.172V353.391H213.453C213.938 351.766 214.742 350.539 215.867 349.711C216.992 348.867 218.281 348.445 219.734 348.445C220.109 348.445 220.5 348.469 220.906 348.516C221.328 348.547 221.703 348.609 222.031 348.703V355.125C221.688 355.016 221.211 354.93 220.602 354.867C220.008 354.789 219.453 354.75 218.938 354.75C217.891 354.75 216.945 354.984 216.102 355.453C215.258 355.906 214.594 356.547 214.109 357.375C213.641 358.188 213.406 359.125 213.406 360.188V375H206.164ZM230.914 375.492C229.258 375.492 227.766 375.203 226.438 374.625C225.125 374.031 224.094 373.156 223.344 372C222.594 370.844 222.219 369.406 222.219 367.688C222.219 366.219 222.484 365 223.016 364.031C223.547 363.047 224.273 362.25 225.195 361.641C226.117 361.031 227.164 360.57 228.336 360.258C229.508 359.945 230.75 359.727 232.062 359.602C233.578 359.461 234.797 359.32 235.719 359.18C236.641 359.039 237.312 358.828 237.734 358.547C238.172 358.25 238.391 357.828 238.391 357.281V357.164C238.391 356.086 238.047 355.25 237.359 354.656C236.688 354.062 235.734 353.766 234.5 353.766C233.203 353.766 232.164 354.055 231.383 354.633C230.617 355.195 230.109 355.914 229.859 356.789L223.133 356.25C223.477 354.656 224.148 353.281 225.148 352.125C226.148 350.953 227.438 350.055 229.016 349.43C230.609 348.789 232.453 348.469 234.547 348.469C236 348.469 237.391 348.641 238.719 348.984C240.047 349.328 241.227 349.859 242.258 350.578C243.305 351.281 244.133 352.195 244.742 353.32C245.352 354.445 245.656 355.781 245.656 357.328V375H238.742V371.344H238.555C238.133 372.172 237.57 372.898 236.867 373.523C236.164 374.133 235.32 374.617 234.336 374.977C233.352 375.32 232.211 375.492 230.914 375.492ZM233 370.477C234.062 370.477 235 370.266 235.812 369.844C236.641 369.406 237.281 368.828 237.734 368.109C238.203 367.375 238.438 366.555 238.438 365.648V362.859C238.219 363 237.906 363.133 237.5 363.258C237.109 363.383 236.672 363.492 236.188 363.586C235.703 363.68 235.219 363.766 234.734 363.844C234.25 363.906 233.812 363.969 233.422 364.031C232.562 364.156 231.812 364.359 231.172 364.641C230.531 364.906 230.031 365.273 229.672 365.742C229.328 366.195 229.156 366.766 229.156 367.453C229.156 368.438 229.516 369.188 230.234 369.703C230.953 370.219 231.875 370.477 233 370.477ZM249.898 375V348.797H256.766V353.461H257.094C257.641 351.914 258.555 350.695 259.836 349.805C261.117 348.914 262.641 348.469 264.406 348.469C266.203 348.469 267.727 348.922 268.977 349.828C270.242 350.719 271.086 351.93 271.508 353.461H271.789C272.32 351.945 273.289 350.734 274.695 349.828C276.102 348.922 277.758 348.469 279.664 348.469C282.102 348.469 284.086 349.242 285.617 350.789C287.164 352.336 287.938 354.531 287.938 357.375V375H280.672V358.828C280.672 357.359 280.281 356.266 279.5 355.547C278.734 354.828 277.773 354.469 276.617 354.469C275.305 354.469 274.273 354.891 273.523 355.734C272.789 356.562 272.422 357.656 272.422 359.016V375H265.391V358.641C265.391 357.375 265.023 356.367 264.289 355.617C263.555 354.852 262.594 354.469 261.406 354.469C260.594 354.469 259.867 354.672 259.227 355.078C258.586 355.484 258.078 356.047 257.703 356.766C257.328 357.469 257.141 358.312 257.141 359.297V375H249.898ZM299.68 375.492C298.023 375.492 296.531 375.203 295.203 374.625C293.891 374.031 292.859 373.156 292.109 372C291.359 370.844 290.984 369.406 290.984 367.688C290.984 366.219 291.25 365 291.781 364.031C292.312 363.047 293.039 362.25 293.961 361.641C294.883 361.031 295.93 360.57 297.102 360.258C298.273 359.945 299.516 359.727 300.828 359.602C302.344 359.461 303.562 359.32 304.484 359.18C305.406 359.039 306.078 358.828 306.5 358.547C306.938 358.25 307.156 357.828 307.156 357.281V357.164C307.156 356.086 306.812 355.25 306.125 354.656C305.453 354.062 304.5 353.766 303.266 353.766C301.969 353.766 300.93 354.055 300.148 354.633C299.383 355.195 298.875 355.914 298.625 356.789L291.898 356.25C292.242 354.656 292.914 353.281 293.914 352.125C294.914 350.953 296.203 350.055 297.781 349.43C299.375 348.789 301.219 348.469 303.312 348.469C304.766 348.469 306.156 348.641 307.484 348.984C308.812 349.328 309.992 349.859 311.023 350.578C312.07 351.281 312.898 352.195 313.508 353.32C314.117 354.445 314.422 355.781 314.422 357.328V375H307.508V371.344H307.32C306.898 372.172 306.336 372.898 305.633 373.523C304.93 374.133 304.086 374.617 303.102 374.977C302.117 375.32 300.977 375.492 299.68 375.492ZM301.766 370.477C302.828 370.477 303.766 370.266 304.578 369.844C305.406 369.406 306.047 368.828 306.5 368.109C306.969 367.375 307.203 366.555 307.203 365.648V362.859C306.984 363 306.672 363.133 306.266 363.258C305.875 363.383 305.438 363.492 304.953 363.586C304.469 363.68 303.984 363.766 303.5 363.844C303.016 363.906 302.578 363.969 302.188 364.031C301.328 364.156 300.578 364.359 299.938 364.641C299.297 364.906 298.797 365.273 298.438 365.742C298.094 366.195 297.922 366.766 297.922 367.453C297.922 368.438 298.281 369.188 299 369.703C299.719 370.219 300.641 370.477 301.766 370.477Z" fill="#291100"/>
<line x1="332" y1="372.5" x2="800" y2="372.5" stroke="#291100" stroke-width="5"/>
<defs>
<linearGradient id="paint0_linear_46_31" x1="3.00002" y1="0.99999" x2="795.5" y2="594.5" gradientUnits="userSpaceOnUse">
<stop stop-color="#D9CABF"/>
<stop offset="1" stop-color="#FFB884"/>
</linearGradient>
</defs>
</svg>
