<svg width="100" height="100" viewBox="0 0 100 100" fill="none" xmlns="http://www.w3.org/2000/svg">
<path d="M0 25C0 25 0 12.5 12.5 12.5H87.5C87.5 12.5 100 12.5 100 25V62.5C100 62.5 100 75 87.5 75H62.5C62.5 79.1687 63.0188 82.2937 64.0625 84.375H68.75C69.5788 84.375 70.3737 84.7042 70.9597 85.2903C71.5458 85.8763 71.875 86.6712 71.875 87.5C71.875 88.3288 71.5458 89.1237 70.9597 89.7097C70.3737 90.2958 69.5788 90.625 68.75 90.625H31.25C30.4212 90.625 29.6263 90.2958 29.0403 89.7097C28.4542 89.1237 28.125 88.3288 28.125 87.5C28.125 86.6712 28.4542 85.8763 29.0403 85.2903C29.6263 84.7042 30.4212 84.375 31.25 84.375H35.9375C36.9812 82.2937 37.5 79.1687 37.5 75H12.5C12.5 75 0 75 0 62.5V25ZM8.7375 19.6562C8.05097 20.1342 7.50324 20.7855 7.15 21.5438C6.61724 22.6445 6.31118 23.8411 6.25 25.0625V62.5C6.25 64.5312 6.7375 65.6375 7.15625 66.2625C7.59375 66.9188 8.21875 67.4375 9.04375 67.85C10.0971 68.3602 11.2386 68.6636 12.4063 68.7437L12.5625 68.75H87.5C89.5312 68.75 90.6375 68.2625 91.2625 67.8437C91.949 67.3658 92.4968 66.7145 92.85 65.9563C93.3602 64.9029 93.6636 63.7614 93.7437 62.5938L93.75 62.4375V25C93.75 22.9688 93.2625 21.8625 92.8437 21.2375C92.366 20.5508 91.7147 20.003 90.9563 19.65C89.8555 19.1172 88.6589 18.8112 87.4375 18.75H12.5C10.4688 18.75 9.3625 19.2375 8.7375 19.6562Z" fill="#FF5C00"/>
</svg>
